<svg width="20" height="20" viewBox="0 0 20 20" fill="none" xmlns="http://www.w3.org/2000/svg">
<g id="icon/search">
<path id="Vector (Stroke)" fill-rule="evenodd" clip-rule="evenodd" d="M9.16675 3.33329C5.94509 3.33329 3.33341 5.94496 3.33341 9.16663C3.33341 12.3883 5.94509 15 9.16675 15C12.3884 15 15.0001 12.3883 15.0001 9.16663C15.0001 5.94496 12.3884 3.33329 9.16675 3.33329ZM1.66675 9.16663C1.66675 5.02449 5.02461 1.66663 9.16675 1.66663C13.3089 1.66663 16.6667 5.02449 16.6667 9.16663C16.6667 13.3088 13.3089 16.6666 9.16675 16.6666C5.02461 16.6666 1.66675 13.3088 1.66675 9.16663Z" fill="#8E94A6"/>
<path id="Vector (Stroke)_2" fill-rule="evenodd" clip-rule="evenodd" d="M13.2844 13.2845C13.6098 12.959 14.1374 12.959 14.4629 13.2845L18.0879 16.9095C18.4133 17.2349 18.4133 17.7626 18.0879 18.088C17.7624 18.4134 17.2348 18.4134 16.9094 18.088L13.2844 14.463C12.9589 14.1376 12.9589 13.6099 13.2844 13.2845Z" fill="#8E94A6"/>
</g>
</svg>
